<?xml version="1.0" encoding="UTF-8"?>
<svg width="538px" height="149px" viewBox="0 0 538 149" version="1.1" xmlns="http://www.w3.org/2000/svg" xmlns:xlink="http://www.w3.org/1999/xlink">
    <!-- Generator: Sketch 53 (72520) - https://sketchapp.com -->
    <title>LOGO_02</title>
    <desc>Created with Sketch.</desc>
    <g id="LOGO_02" stroke="none" stroke-width="1" fill="none" fill-rule="evenodd">
        <g id="Group-3" transform="translate(30.000000, 16.000000)">
            <text id="asupathri" font-family="Roboto-Bold, Roboto" font-size="100.319993" font-weight="bold" letter-spacing="-4.19999981" fill="#007BCB">
                <tspan x="85.3599939" y="93">asupathr</tspan>
                <tspan x="450.149889" y="93">i</tspan>
            </text>
            <g id="Group-7" transform="translate(0.000000, 18.479999)">
                <path d="M36.5289907,94.7281348 C50.8601926,75.5076153 60.1445397,62.9898338 64.3820321,57.1747904 C68.718474,51.22396 71.2799949,43.877097 71.2799949,35.9271387 C71.2799949,16.0851279 55.3234245,0 35.6399974,0 C15.9565704,0 0,16.0851279 0,35.9271387 C0,44.2105098 2.78088115,51.8391384 7.45286761,57.91608 C11.7011085,63.4418477 20.7737955,75.7978923 34.6709287,94.7281348 C34.9913863,95.1646522 36.2347865,95.1227113 36.5289907,94.7281348 Z" id="Oval" fill="#0080D1"></path>
                <g id="Group-6" transform="translate(11.879999, 12.340464)">
                    <g id="Group-5" fill="#FFFFFF">
                        <path d="M33.2639976,14.3665106 L43.6958693,14.3665106 C45.8078766,14.3665106 47.5199968,16.0786308 47.5199968,18.1906381 L47.5199968,29.6977306 C47.5199968,31.8097379 45.8078766,33.5218581 43.6958693,33.5218581 L33.2639976,33.5218581 L33.2639976,44.0642411 C33.2639976,46.1762484 31.5518774,47.8883687 29.4398701,47.8883687 L18.0801265,47.8883687 C15.9681192,47.8883687 14.255999,46.1762484 14.255999,44.0642411 L14.255999,33.5218581 L3.82412742,33.5218581 C1.71212013,33.5218581 -5.06364336e-08,31.8097379 -5.06364336e-08,29.6977306 L-5.06364336e-08,18.1906381 C-5.06364336e-08,16.0786308 1.71212013,14.3665106 3.82412742,14.3665106 L14.255999,14.3665106 L14.255999,3.82412752 C14.255999,1.71212021 15.9681192,1.27614787e-15 18.0801265,8.8817842e-16 L29.4398701,4.4408921e-16 C31.5518774,5.61197606e-17 33.2639976,1.71212021 33.2639976,3.82412752 L33.2639976,14.3665106 Z" id="Combined-Shape"></path>
                    </g>
                    <g id="Group-2" transform="translate(9.028799, 11.253767)" fill="#0080D1">
                        <g id="Group" transform="translate(0.234035, 0.255765)">
                            <path d="M1.52501275,7.82131819 C5.7357966,9.73113018 8.88287666,12.5906828 10.9662529,16.3999761 C13.0925551,20.287756 13.9158998,24.8083308 13.4362871,29.9617005 L13.4362683,29.9616988 C13.374387,30.6266038 13.8632344,31.2157805 14.5281395,31.2776618 C14.5653875,31.2811283 14.6027764,31.2828644 14.6401854,31.2828644 L14.6401854,31.2828644 C15.2927924,31.2828644 15.8218349,30.7538219 15.8218349,30.101215 C15.8218349,30.0556508 15.8191994,30.0101247 15.8139418,29.9648649 C15.2242436,24.8884259 15.9287227,20.4940008 17.927388,16.7815886 C19.9281026,13.06537 23.2627276,9.96371004 27.9312629,7.47660884 L27.9312768,7.47663492 C28.52665,7.15945757 28.7521724,6.41968913 28.4349951,5.82431585 C28.4149525,5.78669405 28.3929543,5.75014723 28.3690907,5.71482543 L28.3690907,5.71482543 C28.0301255,5.21310537 27.3486154,5.08116651 26.8468953,5.42013174 C26.7830795,5.46324611 26.7239843,5.51296477 26.6705884,5.56846424 C22.6604461,9.73656813 18.6503157,11.8206258 14.6401854,11.8206258 C10.666722,11.8206258 6.69325868,9.77450549 2.71979533,5.68226487 L2.71979258,5.68226754 C2.28020092,5.22953533 1.55682949,5.21888281 1.10409728,5.65847447 C1.02877508,5.73161044 0.963892186,5.8147787 0.911280028,5.90563169 L0.911280028,5.90563169 C0.535744729,6.55412258 0.757018949,7.38425982 1.40550983,7.75979512 C1.44430503,7.78226107 1.4841898,7.80279055 1.52501738,7.821308 Z" id="Path-2"></path>
                            <ellipse id="Oval" cx="14.6401854" cy="3.45695134" rx="3.34669957" ry="3.33910957"></ellipse>
                        </g>
                    </g>
                </g>
            </g>
        </g>
    </g>
</svg>